<?xml version="1.0" encoding="UTF-8"?>
<svg id="katman_1" data-name="katman 1" xmlns="http://www.w3.org/2000/svg" xmlns:xlink="http://www.w3.org/1999/xlink" viewBox="0 0 240.94 155.91">
  <defs>
    <style>
      .cls-1, .cls-2, .cls-3 {
        fill: #000;
      }

      .cls-1, .cls-3, .cls-4, .cls-5, .cls-6 {
        font-family: LatoLatin-Heavy, LatoLatin;
        font-weight: 800;
      }

      .cls-1, .cls-6 {
        font-size: 16.99px;
      }

      .cls-2, .cls-7, .cls-8, .cls-9, .cls-10 {
        stroke-width: 0px;
      }

      .cls-11 {
        letter-spacing: -.03em;
      }

      .cls-12 {
        fill: #4bad33;
        font-family: TimesNewRomanPS-BoldMT, 'Times New Roman';
        font-size: 12px;
      }

      .cls-12, .cls-13, .cls-14 {
        font-weight: 700;
      }

      .cls-15 {
        letter-spacing: 0em;
      }

      .cls-16 {
        clip-path: url(#clippath-2);
      }

      .cls-17 {
        letter-spacing: 0em;
      }

      .cls-18 {
        letter-spacing: 0em;
      }

      .cls-19 {
        stroke: #000;
      }

      .cls-19, .cls-7 {
        fill: none;
      }

      .cls-19, .cls-20 {
        stroke-miterlimit: 10;
      }

      .cls-3, .cls-4 {
        font-size: 16.22px;
      }

      .cls-13 {
        font-size: 10px;
      }

      .cls-13, .cls-14 {
        fill: #333;
        font-family: Roboto-Bold, Roboto;
      }

      .cls-21 {
        clip-path: url(#clippath-1);
      }

      .cls-22 {
        clip-path: url(#clippath-4);
      }

      .cls-8, .cls-5 {
        fill: #d1d0d1;
      }

      .cls-4 {
        fill: #801710;
        opacity: .75;
      }

      .cls-23 {
        letter-spacing: -.02em;
      }

      .cls-9 {
        fill: #010101;
      }

      .cls-14 {
        font-size: 8.43px;
      }

      .cls-24 {
        clip-path: url(#clippath);
      }

      .cls-5 {
        font-size: 7.99px;
      }

      .cls-25 {
        clip-path: url(#clippath-3);
      }

      .cls-6 {
        fill: #4663ac;
        opacity: .7;
      }

      .cls-20 {
        fill: #20353b;
        stroke: #355761;
        stroke-width: 30px;
      }

      .cls-10 {
        fill: #fff;
      }

      .cls-26 {
        clip-path: url(#clippath-5);
      }

      .cls-27 {
        letter-spacing: -.01em;
      }
    </style>
    <clipPath id="clippath">
      <rect class="cls-7" x="11.16" y="-5.13" width="74.79" height="76.04"/>
    </clipPath>
    <clipPath id="clippath-1">
      <rect class="cls-7" x="12.54" y="-3.75" width="65.75" height="65.75"/>
    </clipPath>
    <clipPath id="clippath-2">
      <rect class="cls-7" x="12.54" y="-3.75" width="65.75" height="65.75"/>
    </clipPath>
    <clipPath id="clippath-3">
      <rect class="cls-7" x="20.32" y="29.47" width="50.27" height="16.76"/>
    </clipPath>
    <clipPath id="clippath-4">
      <path class="cls-7" d="M62.13,29.47c4.63,0,8.38,3.75,8.38,8.38s-3.75,8.38-8.38,8.38H28.7c-4.63,0-8.38-3.75-8.38-8.38s3.75-8.38,8.38-8.38h33.43"/>
    </clipPath>
    <clipPath id="clippath-5">
      <rect class="cls-7" x="12.54" y="-3.75" width="65.75" height="65.75"/>
    </clipPath>
  </defs>
  <g id="_Ön" data-name="Ön">
    <rect class="cls-10" x="-8.5" y="-8.5" width="257.95" height="172.91"/>
    <rect class="cls-8" x="0" y="0" width="240.94" height="155.91"/>
    <circle class="cls-20" cx="240.94" cy="78.01" r="92.96"/>
    <g>
      <g class="cls-24">
        <g class="cls-21">
          <g class="cls-16">
            <g class="cls-25">
              <g class="cls-22">
                <rect class="cls-2" x="20.32" y="29.47" width="50.27" height="16.76"/>
              </g>
            </g>
          </g>
        </g>
      </g>
      <g class="cls-26">
        <text class="cls-5" transform="translate(24.58 40.2)"><tspan x="0" y="0">O</tspan></text>
        <text class="cls-5" transform="translate(31.06 40.2)"><tspan x="0" y="0">f</tspan></text>
        <text class="cls-5" transform="translate(33.96 40.2)"><tspan x="0" y="0">l</tspan></text>
        <text class="cls-5" transform="translate(35.99 40.2)"><tspan x="0" y="0">u</tspan></text>
        <text class="cls-5" transform="translate(40.51 40.2)"><tspan x="0" y="0"> </tspan></text>
        <text class="cls-5" transform="translate(42.41 40.2)"><tspan x="0" y="0">B</tspan></text>
        <text class="cls-5" transform="translate(47.71 40.2)"><tspan x="0" y="0">i</tspan></text>
        <text class="cls-5" transform="translate(49.79 40.2)"><tspan x="0" y="0">l</tspan></text>
        <text class="cls-5" transform="translate(51.82 40.2)"><tspan x="0" y="0">i</tspan></text>
        <text class="cls-5" transform="translate(53.9 40.2)"><tspan x="0" y="0">ş</tspan></text>
        <text class="cls-5" transform="translate(57.43 40.2)"><tspan x="0" y="0">i</tspan></text>
        <text class="cls-5" transform="translate(59.51 40.2)"><tspan x="0" y="0">m</tspan></text>
        <text class="cls-6" transform="translate(44.05 27.98)"><tspan x="0" y="0">B</tspan></text>
        <text class="cls-1" transform="translate(43.3 27.23)"><tspan x="0" y="0">B</tspan></text>
        <text class="cls-4" transform="translate(36.38 27.52)"><tspan x="0" y="0">O</tspan></text>
        <text class="cls-3" transform="translate(35.67 26.8)"><tspan x="0" y="0">O</tspan></text>
      </g>
    </g>
    <text class="cls-13" transform="translate(17 66.13) scale(1.07 1)"><tspan x="0" y="0">Ogün Ahmet</tspan><tspan class="cls-11" x="56.06" y="0"> </tspan><tspan x="58.26" y="0">TÜFE</tspan><tspan class="cls-23" x="82.13" y="0">K</tspan><tspan x="88.33" y="0">Çİ</tspan></text>
    <text class="cls-14" transform="translate(17 87.26) scale(1.07 1)"><tspan x="0" y="0">oflubilisim.</tspan><tspan class="cls-15" x="42.5" y="0">r</tspan><tspan x="45.66" y="0">f.gd</tspan></text>
    <text class="cls-14" transform="translate(17 99.27) scale(1.07 1)"><tspan x="0" y="0">github.com/tmobil</tspan><tspan class="cls-17" x="70.25" y="0">y</tspan><tspan x="74.42" y="0">alari</tspan></text>
    <text class="cls-14" transform="translate(17 111.28) scale(1.07 1)"><tspan x="0" y="0">oguntu</tspan><tspan class="cls-27" x="26.58" y="0">f</tspan><tspan x="29.5" y="0">e</tspan><tspan class="cls-18" x="34.06" y="0">k</tspan><tspan x="38.48" y="0">ci@gmail.com</tspan></text>
    <text class="cls-14" transform="translate(17 123.3) scale(1.07 1)"><tspan x="0" y="0">oflubilisim@gmail.com</tspan></text>
    <text class="cls-14" transform="translate(17 135.31) scale(1.07 1)"><tspan x="0" y="0">+ 90 541 568 49 53</tspan></text>
    <text class="cls-12" transform="translate(156.09 99.18) rotate(-102.16)"><tspan x="0" y="0">B</tspan></text>
    <text class="cls-12" transform="translate(154.5 91.64) rotate(-97.77)"><tspan x="0" y="0">e</tspan></text>
    <text class="cls-12" transform="translate(153.79 86.64) rotate(-93.79)"><tspan x="0" y="0">n</tspan></text>
    <text class="cls-12" transform="translate(153.4 80.21) rotate(-90.45)"><tspan x="0" y="0">i</tspan></text>
    <text class="cls-12" transform="translate(153.38 77.02) rotate(-88.34)"><tspan x="0" y="0"> </tspan></text>
    <text class="cls-12" transform="translate(153.33 74.3) rotate(-84.22)"><tspan x="0" y="0">O</tspan></text>
    <text class="cls-12" transform="translate(154.28 65.39) rotate(-78.89)"><tspan x="0" y="0">k</tspan></text>
    <text class="cls-12" transform="translate(155.5 59.13) rotate(-74.45)"><tspan x="0" y="0">u</tspan></text>
    <text class="cls-12" transform="translate(157.25 52.95) rotate(-70.92)"><tspan x="0" y="0">t</tspan></text>
    <rect class="cls-10" x="167.71" y="43.81" width="68.18" height="68.18" rx="9.22" ry="9.22"/>
    <path id="qr-path" class="cls-9" d="M175.08,51.18h1.84v1.84h-1.84v-1.84ZM176.92,51.18h1.84v1.84h-1.84v-1.84ZM178.77,51.18h1.84v1.84h-1.84v-1.84ZM180.61,51.18h1.84v1.84h-1.84v-1.84ZM182.45,51.18h1.84v1.84h-1.84v-1.84ZM184.3,51.18h1.84v1.84h-1.84v-1.84ZM186.14,51.18h1.84v1.84h-1.84v-1.84ZM189.82,51.18h1.84v1.84h-1.84v-1.84ZM191.67,51.18h1.84v1.84h-1.84v-1.84ZM202.72,51.18h1.84v1.84h-1.84v-1.84ZM204.56,51.18h1.84v1.84h-1.84v-1.84ZM206.41,51.18h1.84v1.84h-1.84v-1.84ZM208.25,51.18h1.84v1.84h-1.84v-1.84ZM210.09,51.18h1.84v1.84h-1.84v-1.84ZM211.93,51.18h1.84v1.84h-1.84v-1.84ZM215.62,51.18h1.84v1.84h-1.84v-1.84ZM217.46,51.18h1.84v1.84h-1.84v-1.84ZM219.3,51.18h1.84v1.84h-1.84v-1.84ZM221.15,51.18h1.84v1.84h-1.84v-1.84ZM222.99,51.18h1.84v1.84h-1.84v-1.84ZM224.83,51.18h1.84v1.84h-1.84v-1.84ZM226.67,51.18h1.84v1.84h-1.84v-1.84ZM175.08,53.03h1.84v1.84h-1.84v-1.84ZM186.14,53.03h1.84v1.84h-1.84v-1.84ZM200.88,53.03h1.84v1.84h-1.84v-1.84ZM202.72,53.03h1.84v1.84h-1.84v-1.84ZM206.41,53.03h1.84v1.84h-1.84v-1.84ZM215.62,53.03h1.84v1.84h-1.84v-1.84ZM226.67,53.03h1.84v1.84h-1.84v-1.84ZM175.08,54.87h1.84v1.84h-1.84v-1.84ZM178.77,54.87h1.84v1.84h-1.84v-1.84ZM180.61,54.87h1.84v1.84h-1.84v-1.84ZM182.45,54.87h1.84v1.84h-1.84v-1.84ZM186.14,54.87h1.84v1.84h-1.84v-1.84ZM189.82,54.87h1.84v1.84h-1.84v-1.84ZM195.35,54.87h1.84v1.84h-1.84v-1.84ZM197.19,54.87h1.84v1.84h-1.84v-1.84ZM199.04,54.87h1.84v1.84h-1.84v-1.84ZM200.88,54.87h1.84v1.84h-1.84v-1.84ZM202.72,54.87h1.84v1.84h-1.84v-1.84ZM208.25,54.87h1.84v1.84h-1.84v-1.84ZM210.09,54.87h1.84v1.84h-1.84v-1.84ZM211.93,54.87h1.84v1.84h-1.84v-1.84ZM215.62,54.87h1.84v1.84h-1.84v-1.84ZM219.3,54.87h1.84v1.84h-1.84v-1.84ZM221.15,54.87h1.84v1.84h-1.84v-1.84ZM222.99,54.87h1.84v1.84h-1.84v-1.84ZM226.67,54.87h1.84v1.84h-1.84v-1.84ZM175.08,56.71h1.84v1.84h-1.84v-1.84ZM178.77,56.71h1.84v1.84h-1.84v-1.84ZM180.61,56.71h1.84v1.84h-1.84v-1.84ZM182.45,56.71h1.84v1.84h-1.84v-1.84ZM186.14,56.71h1.84v1.84h-1.84v-1.84ZM189.82,56.71h1.84v1.84h-1.84v-1.84ZM191.67,56.71h1.84v1.84h-1.84v-1.84ZM195.35,56.71h1.84v1.84h-1.84v-1.84ZM204.56,56.71h1.84v1.84h-1.84v-1.84ZM206.41,56.71h1.84v1.84h-1.84v-1.84ZM210.09,56.71h1.84v1.84h-1.84v-1.84ZM215.62,56.71h1.84v1.84h-1.84v-1.84ZM219.3,56.71h1.84v1.84h-1.84v-1.84ZM221.15,56.71h1.84v1.84h-1.84v-1.84ZM222.99,56.71h1.84v1.84h-1.84v-1.84ZM226.67,56.71h1.84v1.84h-1.84v-1.84ZM175.08,58.55h1.84v1.84h-1.84v-1.84ZM178.77,58.55h1.84v1.84h-1.84v-1.84ZM180.61,58.55h1.84v1.84h-1.84v-1.84ZM182.45,58.55h1.84v1.84h-1.84v-1.84ZM186.14,58.55h1.84v1.84h-1.84v-1.84ZM189.82,58.55h1.84v1.84h-1.84v-1.84ZM191.67,58.55h1.84v1.84h-1.84v-1.84ZM193.51,58.55h1.84v1.84h-1.84v-1.84ZM195.35,58.55h1.84v1.84h-1.84v-1.84ZM199.04,58.55h1.84v1.84h-1.84v-1.84ZM206.41,58.55h1.84v1.84h-1.84v-1.84ZM208.25,58.55h1.84v1.84h-1.84v-1.84ZM210.09,58.55h1.84v1.84h-1.84v-1.84ZM215.62,58.55h1.84v1.84h-1.84v-1.84ZM219.3,58.55h1.84v1.84h-1.84v-1.84ZM221.15,58.55h1.84v1.84h-1.84v-1.84ZM222.99,58.55h1.84v1.84h-1.84v-1.84ZM226.67,58.55h1.84v1.84h-1.84v-1.84ZM175.08,60.4h1.84v1.84h-1.84v-1.84ZM186.14,60.4h1.84v1.84h-1.84v-1.84ZM191.67,60.4h1.84v1.84h-1.84v-1.84ZM197.19,60.4h1.84v1.84h-1.84v-1.84ZM200.88,60.4h1.84v1.84h-1.84v-1.84ZM206.41,60.4h1.84v1.84h-1.84v-1.84ZM210.09,60.4h1.84v1.84h-1.84v-1.84ZM211.93,60.4h1.84v1.84h-1.84v-1.84ZM215.62,60.4h1.84v1.84h-1.84v-1.84ZM226.67,60.4h1.84v1.84h-1.84v-1.84ZM175.08,62.24h1.84v1.84h-1.84v-1.84ZM176.92,62.24h1.84v1.84h-1.84v-1.84ZM178.77,62.24h1.84v1.84h-1.84v-1.84ZM180.61,62.24h1.84v1.84h-1.84v-1.84ZM182.45,62.24h1.84v1.84h-1.84v-1.84ZM184.3,62.24h1.84v1.84h-1.84v-1.84ZM186.14,62.24h1.84v1.84h-1.84v-1.84ZM189.82,62.24h1.84v1.84h-1.84v-1.84ZM193.51,62.24h1.84v1.84h-1.84v-1.84ZM197.19,62.24h1.84v1.84h-1.84v-1.84ZM200.88,62.24h1.84v1.84h-1.84v-1.84ZM204.56,62.24h1.84v1.84h-1.84v-1.84ZM208.25,62.24h1.84v1.84h-1.84v-1.84ZM211.93,62.24h1.84v1.84h-1.84v-1.84ZM215.62,62.24h1.84v1.84h-1.84v-1.84ZM217.46,62.24h1.84v1.84h-1.84v-1.84ZM219.3,62.24h1.84v1.84h-1.84v-1.84ZM221.15,62.24h1.84v1.84h-1.84v-1.84ZM222.99,62.24h1.84v1.84h-1.84v-1.84ZM224.83,62.24h1.84v1.84h-1.84v-1.84ZM226.67,62.24h1.84v1.84h-1.84v-1.84ZM191.67,64.08h1.84v1.84h-1.84v-1.84ZM195.35,64.08h1.84v1.84h-1.84v-1.84ZM199.04,64.08h1.84v1.84h-1.84v-1.84ZM200.88,64.08h1.84v1.84h-1.84v-1.84ZM206.41,64.08h1.84v1.84h-1.84v-1.84ZM208.25,64.08h1.84v1.84h-1.84v-1.84ZM210.09,64.08h1.84v1.84h-1.84v-1.84ZM211.93,64.08h1.84v1.84h-1.84v-1.84ZM175.08,65.93h1.84v1.84h-1.84v-1.84ZM176.92,65.93h1.84v1.84h-1.84v-1.84ZM178.77,65.93h1.84v1.84h-1.84v-1.84ZM180.61,65.93h1.84v1.84h-1.84v-1.84ZM186.14,65.93h1.84v1.84h-1.84v-1.84ZM189.82,65.93h1.84v1.84h-1.84v-1.84ZM199.04,65.93h1.84v1.84h-1.84v-1.84ZM200.88,65.93h1.84v1.84h-1.84v-1.84ZM204.56,65.93h1.84v1.84h-1.84v-1.84ZM206.41,65.93h1.84v1.84h-1.84v-1.84ZM210.09,65.93h1.84v1.84h-1.84v-1.84ZM213.78,65.93h1.84v1.84h-1.84v-1.84ZM219.3,65.93h1.84v1.84h-1.84v-1.84ZM221.15,65.93h1.84v1.84h-1.84v-1.84ZM222.99,65.93h1.84v1.84h-1.84v-1.84ZM226.67,65.93h1.84v1.84h-1.84v-1.84ZM182.45,67.77h1.84v1.84h-1.84v-1.84ZM187.98,67.77h1.84v1.84h-1.84v-1.84ZM189.82,67.77h1.84v1.84h-1.84v-1.84ZM191.67,67.77h1.84v1.84h-1.84v-1.84ZM202.72,67.77h1.84v1.84h-1.84v-1.84ZM204.56,67.77h1.84v1.84h-1.84v-1.84ZM206.41,67.77h1.84v1.84h-1.84v-1.84ZM208.25,67.77h1.84v1.84h-1.84v-1.84ZM210.09,67.77h1.84v1.84h-1.84v-1.84ZM211.93,67.77h1.84v1.84h-1.84v-1.84ZM213.78,67.77h1.84v1.84h-1.84v-1.84ZM215.62,67.77h1.84v1.84h-1.84v-1.84ZM217.46,67.77h1.84v1.84h-1.84v-1.84ZM219.3,67.77h1.84v1.84h-1.84v-1.84ZM221.15,67.77h1.84v1.84h-1.84v-1.84ZM222.99,67.77h1.84v1.84h-1.84v-1.84ZM224.83,67.77h1.84v1.84h-1.84v-1.84ZM226.67,67.77h1.84v1.84h-1.84v-1.84ZM175.08,69.61h1.84v1.84h-1.84v-1.84ZM176.92,69.61h1.84v1.84h-1.84v-1.84ZM180.61,69.61h1.84v1.84h-1.84v-1.84ZM182.45,69.61h1.84v1.84h-1.84v-1.84ZM186.14,69.61h1.84v1.84h-1.84v-1.84ZM187.98,69.61h1.84v1.84h-1.84v-1.84ZM200.88,69.61h1.84v1.84h-1.84v-1.84ZM202.72,69.61h1.84v1.84h-1.84v-1.84ZM208.25,69.61h1.84v1.84h-1.84v-1.84ZM213.78,69.61h1.84v1.84h-1.84v-1.84ZM215.62,69.61h1.84v1.84h-1.84v-1.84ZM217.46,69.61h1.84v1.84h-1.84v-1.84ZM219.3,69.61h1.84v1.84h-1.84v-1.84ZM175.08,71.45h1.84v1.84h-1.84v-1.84ZM176.92,71.45h1.84v1.84h-1.84v-1.84ZM180.61,71.45h1.84v1.84h-1.84v-1.84ZM189.82,71.45h1.84v1.84h-1.84v-1.84ZM195.35,71.45h1.84v1.84h-1.84v-1.84ZM197.19,71.45h1.84v1.84h-1.84v-1.84ZM199.04,71.45h1.84v1.84h-1.84v-1.84ZM200.88,71.45h1.84v1.84h-1.84v-1.84ZM202.72,71.45h1.84v1.84h-1.84v-1.84ZM208.25,71.45h1.84v1.84h-1.84v-1.84ZM210.09,71.45h1.84v1.84h-1.84v-1.84ZM211.93,71.45h1.84v1.84h-1.84v-1.84ZM217.46,71.45h1.84v1.84h-1.84v-1.84ZM219.3,71.45h1.84v1.84h-1.84v-1.84ZM224.83,71.45h1.84v1.84h-1.84v-1.84ZM175.08,73.3h1.84v1.84h-1.84v-1.84ZM182.45,73.3h1.84v1.84h-1.84v-1.84ZM184.3,73.3h1.84v1.84h-1.84v-1.84ZM186.14,73.3h1.84v1.84h-1.84v-1.84ZM187.98,73.3h1.84v1.84h-1.84v-1.84ZM191.67,73.3h1.84v1.84h-1.84v-1.84ZM195.35,73.3h1.84v1.84h-1.84v-1.84ZM204.56,73.3h1.84v1.84h-1.84v-1.84ZM206.41,73.3h1.84v1.84h-1.84v-1.84ZM222.99,73.3h1.84v1.84h-1.84v-1.84ZM176.92,75.14h1.84v1.84h-1.84v-1.84ZM180.61,75.14h1.84v1.84h-1.84v-1.84ZM189.82,75.14h1.84v1.84h-1.84v-1.84ZM193.51,75.14h1.84v1.84h-1.84v-1.84ZM195.35,75.14h1.84v1.84h-1.84v-1.84ZM199.04,75.14h1.84v1.84h-1.84v-1.84ZM210.09,75.14h1.84v1.84h-1.84v-1.84ZM215.62,75.14h1.84v1.84h-1.84v-1.84ZM217.46,75.14h1.84v1.84h-1.84v-1.84ZM224.83,75.14h1.84v1.84h-1.84v-1.84ZM226.67,75.14h1.84v1.84h-1.84v-1.84ZM175.08,76.98h1.84v1.84h-1.84v-1.84ZM176.92,76.98h1.84v1.84h-1.84v-1.84ZM184.3,76.98h1.84v1.84h-1.84v-1.84ZM186.14,76.98h1.84v1.84h-1.84v-1.84ZM191.67,76.98h1.84v1.84h-1.84v-1.84ZM193.51,76.98h1.84v1.84h-1.84v-1.84ZM197.19,76.98h1.84v1.84h-1.84v-1.84ZM200.88,76.98h1.84v1.84h-1.84v-1.84ZM206.41,76.98h1.84v1.84h-1.84v-1.84ZM208.25,76.98h1.84v1.84h-1.84v-1.84ZM210.09,76.98h1.84v1.84h-1.84v-1.84ZM211.93,76.98h1.84v1.84h-1.84v-1.84ZM213.78,76.98h1.84v1.84h-1.84v-1.84ZM215.62,76.98h1.84v1.84h-1.84v-1.84ZM219.3,76.98h1.84v1.84h-1.84v-1.84ZM222.99,76.98h1.84v1.84h-1.84v-1.84ZM224.83,76.98h1.84v1.84h-1.84v-1.84ZM226.67,76.98h1.84v1.84h-1.84v-1.84ZM176.92,78.82h1.84v1.84h-1.84v-1.84ZM182.45,78.82h1.84v1.84h-1.84v-1.84ZM184.3,78.82h1.84v1.84h-1.84v-1.84ZM187.98,78.82h1.84v1.84h-1.84v-1.84ZM189.82,78.82h1.84v1.84h-1.84v-1.84ZM191.67,78.82h1.84v1.84h-1.84v-1.84ZM197.19,78.82h1.84v1.84h-1.84v-1.84ZM199.04,78.82h1.84v1.84h-1.84v-1.84ZM202.72,78.82h1.84v1.84h-1.84v-1.84ZM210.09,78.82h1.84v1.84h-1.84v-1.84ZM211.93,78.82h1.84v1.84h-1.84v-1.84ZM219.3,78.82h1.84v1.84h-1.84v-1.84ZM221.15,78.82h1.84v1.84h-1.84v-1.84ZM226.67,78.82h1.84v1.84h-1.84v-1.84ZM175.08,80.67h1.84v1.84h-1.84v-1.84ZM176.92,80.67h1.84v1.84h-1.84v-1.84ZM178.77,80.67h1.84v1.84h-1.84v-1.84ZM182.45,80.67h1.84v1.84h-1.84v-1.84ZM184.3,80.67h1.84v1.84h-1.84v-1.84ZM186.14,80.67h1.84v1.84h-1.84v-1.84ZM195.35,80.67h1.84v1.84h-1.84v-1.84ZM208.25,80.67h1.84v1.84h-1.84v-1.84ZM211.93,80.67h1.84v1.84h-1.84v-1.84ZM213.78,80.67h1.84v1.84h-1.84v-1.84ZM219.3,80.67h1.84v1.84h-1.84v-1.84ZM224.83,80.67h1.84v1.84h-1.84v-1.84ZM176.92,82.51h1.84v1.84h-1.84v-1.84ZM178.77,82.51h1.84v1.84h-1.84v-1.84ZM184.3,82.51h1.84v1.84h-1.84v-1.84ZM187.98,82.51h1.84v1.84h-1.84v-1.84ZM189.82,82.51h1.84v1.84h-1.84v-1.84ZM197.19,82.51h1.84v1.84h-1.84v-1.84ZM199.04,82.51h1.84v1.84h-1.84v-1.84ZM211.93,82.51h1.84v1.84h-1.84v-1.84ZM213.78,82.51h1.84v1.84h-1.84v-1.84ZM217.46,82.51h1.84v1.84h-1.84v-1.84ZM221.15,82.51h1.84v1.84h-1.84v-1.84ZM224.83,82.51h1.84v1.84h-1.84v-1.84ZM175.08,84.35h1.84v1.84h-1.84v-1.84ZM182.45,84.35h1.84v1.84h-1.84v-1.84ZM184.3,84.35h1.84v1.84h-1.84v-1.84ZM186.14,84.35h1.84v1.84h-1.84v-1.84ZM187.98,84.35h1.84v1.84h-1.84v-1.84ZM193.51,84.35h1.84v1.84h-1.84v-1.84ZM195.35,84.35h1.84v1.84h-1.84v-1.84ZM197.19,84.35h1.84v1.84h-1.84v-1.84ZM206.41,84.35h1.84v1.84h-1.84v-1.84ZM217.46,84.35h1.84v1.84h-1.84v-1.84ZM219.3,84.35h1.84v1.84h-1.84v-1.84ZM221.15,84.35h1.84v1.84h-1.84v-1.84ZM178.77,86.19h1.84v1.84h-1.84v-1.84ZM187.98,86.19h1.84v1.84h-1.84v-1.84ZM191.67,86.19h1.84v1.84h-1.84v-1.84ZM197.19,86.19h1.84v1.84h-1.84v-1.84ZM202.72,86.19h1.84v1.84h-1.84v-1.84ZM204.56,86.19h1.84v1.84h-1.84v-1.84ZM206.41,86.19h1.84v1.84h-1.84v-1.84ZM210.09,86.19h1.84v1.84h-1.84v-1.84ZM211.93,86.19h1.84v1.84h-1.84v-1.84ZM221.15,86.19h1.84v1.84h-1.84v-1.84ZM222.99,86.19h1.84v1.84h-1.84v-1.84ZM224.83,86.19h1.84v1.84h-1.84v-1.84ZM226.67,86.19h1.84v1.84h-1.84v-1.84ZM176.92,88.04h1.84v1.84h-1.84v-1.84ZM180.61,88.04h1.84v1.84h-1.84v-1.84ZM182.45,88.04h1.84v1.84h-1.84v-1.84ZM184.3,88.04h1.84v1.84h-1.84v-1.84ZM186.14,88.04h1.84v1.84h-1.84v-1.84ZM189.82,88.04h1.84v1.84h-1.84v-1.84ZM193.51,88.04h1.84v1.84h-1.84v-1.84ZM195.35,88.04h1.84v1.84h-1.84v-1.84ZM197.19,88.04h1.84v1.84h-1.84v-1.84ZM199.04,88.04h1.84v1.84h-1.84v-1.84ZM202.72,88.04h1.84v1.84h-1.84v-1.84ZM206.41,88.04h1.84v1.84h-1.84v-1.84ZM208.25,88.04h1.84v1.84h-1.84v-1.84ZM211.93,88.04h1.84v1.84h-1.84v-1.84ZM213.78,88.04h1.84v1.84h-1.84v-1.84ZM215.62,88.04h1.84v1.84h-1.84v-1.84ZM217.46,88.04h1.84v1.84h-1.84v-1.84ZM219.3,88.04h1.84v1.84h-1.84v-1.84ZM222.99,88.04h1.84v1.84h-1.84v-1.84ZM224.83,88.04h1.84v1.84h-1.84v-1.84ZM226.67,88.04h1.84v1.84h-1.84v-1.84ZM189.82,89.88h1.84v1.84h-1.84v-1.84ZM191.67,89.88h1.84v1.84h-1.84v-1.84ZM197.19,89.88h1.84v1.84h-1.84v-1.84ZM199.04,89.88h1.84v1.84h-1.84v-1.84ZM200.88,89.88h1.84v1.84h-1.84v-1.84ZM202.72,89.88h1.84v1.84h-1.84v-1.84ZM206.41,89.88h1.84v1.84h-1.84v-1.84ZM208.25,89.88h1.84v1.84h-1.84v-1.84ZM210.09,89.88h1.84v1.84h-1.84v-1.84ZM211.93,89.88h1.84v1.84h-1.84v-1.84ZM219.3,89.88h1.84v1.84h-1.84v-1.84ZM226.67,89.88h1.84v1.84h-1.84v-1.84ZM175.08,91.72h1.84v1.84h-1.84v-1.84ZM176.92,91.72h1.84v1.84h-1.84v-1.84ZM178.77,91.72h1.84v1.84h-1.84v-1.84ZM180.61,91.72h1.84v1.84h-1.84v-1.84ZM182.45,91.72h1.84v1.84h-1.84v-1.84ZM184.3,91.72h1.84v1.84h-1.84v-1.84ZM186.14,91.72h1.84v1.84h-1.84v-1.84ZM193.51,91.72h1.84v1.84h-1.84v-1.84ZM195.35,91.72h1.84v1.84h-1.84v-1.84ZM197.19,91.72h1.84v1.84h-1.84v-1.84ZM199.04,91.72h1.84v1.84h-1.84v-1.84ZM204.56,91.72h1.84v1.84h-1.84v-1.84ZM206.41,91.72h1.84v1.84h-1.84v-1.84ZM208.25,91.72h1.84v1.84h-1.84v-1.84ZM210.09,91.72h1.84v1.84h-1.84v-1.84ZM211.93,91.72h1.84v1.84h-1.84v-1.84ZM215.62,91.72h1.84v1.84h-1.84v-1.84ZM219.3,91.72h1.84v1.84h-1.84v-1.84ZM224.83,91.72h1.84v1.84h-1.84v-1.84ZM175.08,93.56h1.84v1.84h-1.84v-1.84ZM186.14,93.56h1.84v1.84h-1.84v-1.84ZM191.67,93.56h1.84v1.84h-1.84v-1.84ZM204.56,93.56h1.84v1.84h-1.84v-1.84ZM211.93,93.56h1.84v1.84h-1.84v-1.84ZM219.3,93.56h1.84v1.84h-1.84v-1.84ZM224.83,93.56h1.84v1.84h-1.84v-1.84ZM226.67,93.56h1.84v1.84h-1.84v-1.84ZM175.08,95.41h1.84v1.84h-1.84v-1.84ZM178.77,95.41h1.84v1.84h-1.84v-1.84ZM180.61,95.41h1.84v1.84h-1.84v-1.84ZM182.45,95.41h1.84v1.84h-1.84v-1.84ZM186.14,95.41h1.84v1.84h-1.84v-1.84ZM193.51,95.41h1.84v1.84h-1.84v-1.84ZM197.19,95.41h1.84v1.84h-1.84v-1.84ZM200.88,95.41h1.84v1.84h-1.84v-1.84ZM202.72,95.41h1.84v1.84h-1.84v-1.84ZM206.41,95.41h1.84v1.84h-1.84v-1.84ZM211.93,95.41h1.84v1.84h-1.84v-1.84ZM213.78,95.41h1.84v1.84h-1.84v-1.84ZM215.62,95.41h1.84v1.84h-1.84v-1.84ZM217.46,95.41h1.84v1.84h-1.84v-1.84ZM219.3,95.41h1.84v1.84h-1.84v-1.84ZM222.99,95.41h1.84v1.84h-1.84v-1.84ZM226.67,95.41h1.84v1.84h-1.84v-1.84ZM175.08,97.25h1.84v1.84h-1.84v-1.84ZM178.77,97.25h1.84v1.84h-1.84v-1.84ZM180.61,97.25h1.84v1.84h-1.84v-1.84ZM182.45,97.25h1.84v1.84h-1.84v-1.84ZM186.14,97.25h1.84v1.84h-1.84v-1.84ZM189.82,97.25h1.84v1.84h-1.84v-1.84ZM193.51,97.25h1.84v1.84h-1.84v-1.84ZM195.35,97.25h1.84v1.84h-1.84v-1.84ZM197.19,97.25h1.84v1.84h-1.84v-1.84ZM200.88,97.25h1.84v1.84h-1.84v-1.84ZM204.56,97.25h1.84v1.84h-1.84v-1.84ZM206.41,97.25h1.84v1.84h-1.84v-1.84ZM208.25,97.25h1.84v1.84h-1.84v-1.84ZM210.09,97.25h1.84v1.84h-1.84v-1.84ZM217.46,97.25h1.84v1.84h-1.84v-1.84ZM219.3,97.25h1.84v1.84h-1.84v-1.84ZM224.83,97.25h1.84v1.84h-1.84v-1.84ZM175.08,99.09h1.84v1.84h-1.84v-1.84ZM178.77,99.09h1.84v1.84h-1.84v-1.84ZM180.61,99.09h1.84v1.84h-1.84v-1.84ZM182.45,99.09h1.84v1.84h-1.84v-1.84ZM186.14,99.09h1.84v1.84h-1.84v-1.84ZM189.82,99.09h1.84v1.84h-1.84v-1.84ZM193.51,99.09h1.84v1.84h-1.84v-1.84ZM195.35,99.09h1.84v1.84h-1.84v-1.84ZM199.04,99.09h1.84v1.84h-1.84v-1.84ZM202.72,99.09h1.84v1.84h-1.84v-1.84ZM204.56,99.09h1.84v1.84h-1.84v-1.84ZM208.25,99.09h1.84v1.84h-1.84v-1.84ZM211.93,99.09h1.84v1.84h-1.84v-1.84ZM217.46,99.09h1.84v1.84h-1.84v-1.84ZM226.67,99.09h1.84v1.84h-1.84v-1.84ZM175.08,100.93h1.84v1.84h-1.84v-1.84ZM186.14,100.93h1.84v1.84h-1.84v-1.84ZM189.82,100.93h1.84v1.84h-1.84v-1.84ZM191.67,100.93h1.84v1.84h-1.84v-1.84ZM195.35,100.93h1.84v1.84h-1.84v-1.84ZM200.88,100.93h1.84v1.84h-1.84v-1.84ZM204.56,100.93h1.84v1.84h-1.84v-1.84ZM211.93,100.93h1.84v1.84h-1.84v-1.84ZM215.62,100.93h1.84v1.84h-1.84v-1.84ZM217.46,100.93h1.84v1.84h-1.84v-1.84ZM219.3,100.93h1.84v1.84h-1.84v-1.84ZM221.15,100.93h1.84v1.84h-1.84v-1.84ZM224.83,100.93h1.84v1.84h-1.84v-1.84ZM175.08,102.78h1.84v1.84h-1.84v-1.84ZM176.92,102.78h1.84v1.84h-1.84v-1.84ZM178.77,102.78h1.84v1.84h-1.84v-1.84ZM180.61,102.78h1.84v1.84h-1.84v-1.84ZM182.45,102.78h1.84v1.84h-1.84v-1.84ZM184.3,102.78h1.84v1.84h-1.84v-1.84ZM186.14,102.78h1.84v1.84h-1.84v-1.84ZM189.82,102.78h1.84v1.84h-1.84v-1.84ZM193.51,102.78h1.84v1.84h-1.84v-1.84ZM197.19,102.78h1.84v1.84h-1.84v-1.84ZM200.88,102.78h1.84v1.84h-1.84v-1.84ZM202.72,102.78h1.84v1.84h-1.84v-1.84ZM206.41,102.78h1.84v1.84h-1.84v-1.84ZM210.09,102.78h1.84v1.84h-1.84v-1.84ZM211.93,102.78h1.84v1.84h-1.84v-1.84ZM213.78,102.78h1.84v1.84h-1.84v-1.84ZM215.62,102.78h1.84v1.84h-1.84v-1.84ZM217.46,102.78h1.84v1.84h-1.84v-1.84ZM219.3,102.78h1.84v1.84h-1.84v-1.84ZM221.15,102.78h1.84v1.84h-1.84v-1.84ZM224.83,102.78h1.84v1.84h-1.84v-1.84Z"/>
    <rect class="cls-19" x="0" width="240.94" height="155.91" rx="11.34" ry="11.34"/>
  </g>
</svg>