<?xml version='1.0' encoding='UTF-8'?>
<svg width="118.4mm" height="118.4mm" version="1.1" viewBox="0 0 118.4 118.4" fill_color="black" back_color="white" xmlns="http://www.w3.org/2000/svg"><path d="M12.8,12.8H16V16H12.8zM16,12.8H19.2V16H16zM19.2,12.8H22.4V16H19.2zM22.4,12.8H25.6V16H22.4zM25.6,12.8H28.8V16H25.6zM28.8,12.8H32V16H28.8zM32,12.8H35.2V16H32zM38.4,12.8H41.6V16H38.4zM41.6,12.8H44.8V16H41.6zM44.8,12.8H48V16H44.8zM48,12.8H51.2V16H48zM54.4,12.8H57.6V16H54.4zM57.6,12.8H60.8V16H57.6zM60.8,12.8H64V16H60.8zM67.2,12.8H70.4V16H67.2zM70.4,12.8H73.6V16H70.4zM83.2,12.8H86.4V16H83.2zM86.4,12.8H89.6V16H86.4zM89.6,12.8H92.8V16H89.6zM92.8,12.8H96V16H92.8zM96,12.8H99.2V16H96zM99.2,12.8H102.4V16H99.2zM102.4,12.8H105.6V16H102.4zM12.8,16H16V19.2H12.8zM32,16H35.2V19.2H32zM38.4,16H41.6V19.2H38.4zM48,16H51.2V19.2H48zM60.8,16H64V19.2H60.8zM67.2,16H70.4V19.2H67.2zM70.4,16H73.6V19.2H70.4zM83.2,16H86.4V19.2H83.2zM102.4,16H105.6V19.2H102.4zM12.8,19.2H16V22.4H12.8zM19.2,19.2H22.4V22.4H19.2zM22.4,19.2H25.6V22.4H22.4zM25.6,19.2H28.8V22.4H25.6zM32,19.2H35.2V22.4H32zM41.6,19.2H44.8V22.4H41.6zM54.4,19.2H57.6V22.4H54.4zM67.2,19.2H70.4V22.4H67.2zM83.2,19.2H86.4V22.4H83.2zM89.6,19.2H92.8V22.4H89.6zM92.8,19.2H96V22.4H92.8zM96,19.2H99.2V22.4H96zM102.4,19.2H105.6V22.4H102.4zM12.8,22.4H16V25.6H12.8zM19.2,22.4H22.4V25.6H19.2zM22.4,22.4H25.6V25.6H22.4zM25.6,22.4H28.8V25.6H25.6zM32,22.4H35.2V25.6H32zM48,22.4H51.2V25.6H48zM51.2,22.4H54.4V25.6H51.2zM60.8,22.4H64V25.6H60.8zM64,22.4H67.2V25.6H64zM67.2,22.4H70.4V25.6H67.2zM70.4,22.4H73.6V25.6H70.4zM73.6,22.4H76.8V25.6H73.6zM83.2,22.4H86.4V25.6H83.2zM89.6,22.4H92.8V25.6H89.6zM92.8,22.4H96V25.6H92.8zM96,22.4H99.2V25.6H96zM102.4,22.4H105.6V25.6H102.4zM12.8,25.6H16V28.8H12.8zM19.2,25.6H22.4V28.8H19.2zM22.4,25.6H25.6V28.8H22.4zM25.6,25.6H28.8V28.8H25.6zM32,25.6H35.2V28.8H32zM38.4,25.6H41.6V28.8H38.4zM48,25.6H51.2V28.8H48zM51.2,25.6H54.4V28.8H51.2zM60.8,25.6H64V28.8H60.8zM64,25.6H67.2V28.8H64zM67.2,25.6H70.4V28.8H67.2zM70.4,25.6H73.6V28.8H70.4zM76.8,25.6H80V28.8H76.8zM83.2,25.6H86.4V28.8H83.2zM89.6,25.6H92.8V28.8H89.6zM92.8,25.6H96V28.8H92.8zM96,25.6H99.2V28.8H96zM102.4,25.6H105.6V28.8H102.4zM12.8,28.8H16V32H12.8zM32,28.8H35.2V32H32zM38.4,28.8H41.6V32H38.4zM41.6,28.8H44.8V32H41.6zM44.8,28.8H48V32H44.8zM51.2,28.8H54.4V32H51.2zM54.4,28.8H57.6V32H54.4zM57.6,28.8H60.8V32H57.6zM64,28.8H67.2V32H64zM70.4,28.8H73.6V32H70.4zM83.2,28.8H86.4V32H83.2zM102.4,28.8H105.6V32H102.4zM12.8,32H16V35.2H12.8zM16,32H19.2V35.2H16zM19.2,32H22.4V35.2H19.2zM22.4,32H25.6V35.2H22.4zM25.6,32H28.8V35.2H25.6zM28.8,32H32V35.2H28.8zM32,32H35.2V35.2H32zM38.4,32H41.6V35.2H38.4zM44.8,32H48V35.2H44.8zM51.2,32H54.4V35.2H51.2zM57.6,32H60.8V35.2H57.6zM64,32H67.2V35.2H64zM70.4,32H73.6V35.2H70.4zM76.8,32H80V35.2H76.8zM83.2,32H86.4V35.2H83.2zM86.4,32H89.6V35.2H86.4zM89.6,32H92.8V35.2H89.6zM92.8,32H96V35.2H92.8zM96,32H99.2V35.2H96zM99.2,32H102.4V35.2H99.2zM102.4,32H105.6V35.2H102.4zM38.4,35.2H41.6V38.4H38.4zM41.6,35.2H44.8V38.4H41.6zM54.4,35.2H57.6V38.4H54.4zM73.6,35.2H76.8V38.4H73.6zM76.8,35.2H80V38.4H76.8zM12.8,38.4H16V41.6H12.8zM16,38.4H19.2V41.6H16zM19.2,38.4H22.4V41.6H19.2zM28.8,38.4H32V41.6H28.8zM32,38.4H35.2V41.6H32zM38.4,38.4H41.6V41.6H38.4zM41.6,38.4H44.8V41.6H41.6zM48,38.4H51.2V41.6H48zM51.2,38.4H54.4V41.6H51.2zM54.4,38.4H57.6V41.6H54.4zM60.8,38.4H64V41.6H60.8zM64,38.4H67.2V41.6H64zM70.4,38.4H73.6V41.6H70.4zM73.6,38.4H76.8V41.6H73.6zM76.8,38.4H80V41.6H76.8zM80,38.4H83.2V41.6H80zM83.2,38.4H86.4V41.6H83.2zM86.4,38.4H89.6V41.6H86.4zM89.6,38.4H92.8V41.6H89.6zM99.2,38.4H102.4V41.6H99.2zM102.4,38.4H105.6V41.6H102.4zM12.8,41.6H16V44.8H12.8zM16,41.6H19.2V44.8H16zM19.2,41.6H22.4V44.8H19.2zM25.6,41.6H28.8V44.8H25.6zM28.8,41.6H32V44.8H28.8zM35.2,41.6H38.4V44.8H35.2zM38.4,41.6H41.6V44.8H38.4zM51.2,41.6H54.4V44.8H51.2zM64,41.6H67.2V44.8H64zM67.2,41.6H70.4V44.8H67.2zM73.6,41.6H76.8V44.8H73.6zM76.8,41.6H80V44.8H76.8zM83.2,41.6H86.4V44.8H83.2zM86.4,41.6H89.6V44.8H86.4zM99.2,41.6H102.4V44.8H99.2zM102.4,41.6H105.6V44.8H102.4zM12.8,44.8H16V48H12.8zM25.6,44.8H28.8V48H25.6zM28.8,44.8H32V48H28.8zM32,44.8H35.2V48H32zM35.2,44.8H38.4V48H35.2zM41.6,44.8H44.8V48H41.6zM44.8,44.8H48V48H44.8zM51.2,44.8H54.4V48H51.2zM54.4,44.8H57.6V48H54.4zM57.6,44.8H60.8V48H57.6zM64,44.8H67.2V48H64zM73.6,44.8H76.8V48H73.6zM76.8,44.8H80V48H76.8zM80,44.8H83.2V48H80zM86.4,44.8H89.6V48H86.4zM92.8,44.8H96V48H92.8zM96,44.8H99.2V48H96zM102.4,44.8H105.6V48H102.4zM25.6,48H28.8V51.2H25.6zM35.2,48H38.4V51.2H35.2zM38.4,48H41.6V51.2H38.4zM44.8,48H48V51.2H44.8zM48,48H51.2V51.2H48zM51.2,48H54.4V51.2H51.2zM57.6,48H60.8V51.2H57.6zM60.8,48H64V51.2H60.8zM64,48H67.2V51.2H64zM70.4,48H73.6V51.2H70.4zM73.6,48H76.8V51.2H73.6zM80,48H83.2V51.2H80zM12.8,51.2H16V54.4H12.8zM19.2,51.2H22.4V54.4H19.2zM22.4,51.2H25.6V54.4H22.4zM32,51.2H35.2V54.4H32zM38.4,51.2H41.6V54.4H38.4zM41.6,51.2H44.8V54.4H41.6zM44.8,51.2H48V54.4H44.8zM54.4,51.2H57.6V54.4H54.4zM57.6,51.2H60.8V54.4H57.6zM67.2,51.2H70.4V54.4H67.2zM70.4,51.2H73.6V54.4H70.4zM73.6,51.2H76.8V54.4H73.6zM83.2,51.2H86.4V54.4H83.2zM86.4,51.2H89.6V54.4H86.4zM102.4,51.2H105.6V54.4H102.4zM12.8,54.4H16V57.6H12.8zM19.2,54.4H22.4V57.6H19.2zM38.4,54.4H41.6V57.6H38.4zM44.8,54.4H48V57.6H44.8zM54.4,54.4H57.6V57.6H54.4zM57.6,54.4H60.8V57.6H57.6zM67.2,54.4H70.4V57.6H67.2zM73.6,54.4H76.8V57.6H73.6zM76.8,54.4H80V57.6H76.8zM83.2,54.4H86.4V57.6H83.2zM86.4,54.4H89.6V57.6H86.4zM96,54.4H99.2V57.6H96zM99.2,54.4H102.4V57.6H99.2zM102.4,54.4H105.6V57.6H102.4zM16,57.6H19.2V60.8H16zM22.4,57.6H25.6V60.8H22.4zM25.6,57.6H28.8V60.8H25.6zM32,57.6H35.2V60.8H32zM35.2,57.6H38.4V60.8H35.2zM38.4,57.6H41.6V60.8H38.4zM48,57.6H51.2V60.8H48zM60.8,57.6H64V60.8H60.8zM73.6,57.6H76.8V60.8H73.6zM76.8,57.6H80V60.8H76.8zM89.6,57.6H92.8V60.8H89.6zM92.8,57.6H96V60.8H92.8zM102.4,57.6H105.6V60.8H102.4zM28.8,60.8H32V64H28.8zM54.4,60.8H57.6V64H54.4zM67.2,60.8H70.4V64H67.2zM73.6,60.8H76.8V64H73.6zM76.8,60.8H80V64H76.8zM86.4,60.8H89.6V64H86.4zM25.6,64H28.8V67.2H25.6zM28.8,64H32V67.2H28.8zM32,64H35.2V67.2H32zM44.8,64H48V67.2H44.8zM48,64H51.2V67.2H48zM51.2,64H54.4V67.2H51.2zM54.4,64H57.6V67.2H54.4zM60.8,64H64V67.2H60.8zM64,64H67.2V67.2H64zM67.2,64H70.4V67.2H67.2zM76.8,64H80V67.2H76.8zM83.2,64H86.4V67.2H83.2zM92.8,64H96V67.2H92.8zM102.4,64H105.6V67.2H102.4zM16,67.2H19.2V70.4H16zM25.6,67.2H28.8V70.4H25.6zM28.8,67.2H32V70.4H28.8zM35.2,67.2H38.4V70.4H35.2zM38.4,67.2H41.6V70.4H38.4zM41.6,67.2H44.8V70.4H41.6zM51.2,67.2H54.4V70.4H51.2zM64,67.2H67.2V70.4H64zM73.6,67.2H76.8V70.4H73.6zM83.2,67.2H86.4V70.4H83.2zM86.4,67.2H89.6V70.4H86.4zM92.8,67.2H96V70.4H92.8zM96,67.2H99.2V70.4H96zM99.2,67.2H102.4V70.4H99.2zM102.4,67.2H105.6V70.4H102.4zM12.8,70.4H16V73.6H12.8zM16,70.4H19.2V73.6H16zM19.2,70.4H22.4V73.6H19.2zM22.4,70.4H25.6V73.6H22.4zM32,70.4H35.2V73.6H32zM38.4,70.4H41.6V73.6H38.4zM41.6,70.4H44.8V73.6H41.6zM51.2,70.4H54.4V73.6H51.2zM54.4,70.4H57.6V73.6H54.4zM57.6,70.4H60.8V73.6H57.6zM64,70.4H67.2V73.6H64zM67.2,70.4H70.4V73.6H67.2zM70.4,70.4H73.6V73.6H70.4zM73.6,70.4H76.8V73.6H73.6zM80,70.4H83.2V73.6H80zM86.4,70.4H89.6V73.6H86.4zM89.6,70.4H92.8V73.6H89.6zM102.4,70.4H105.6V73.6H102.4zM25.6,73.6H28.8V76.8H25.6zM35.2,73.6H38.4V76.8H35.2zM41.6,73.6H44.8V76.8H41.6zM44.8,73.6H48V76.8H44.8zM48,73.6H51.2V76.8H48zM51.2,73.6H54.4V76.8H51.2zM57.6,73.6H60.8V76.8H57.6zM60.8,73.6H64V76.8H60.8zM64,73.6H67.2V76.8H64zM70.4,73.6H73.6V76.8H70.4zM76.8,73.6H80V76.8H76.8zM80,73.6H83.2V76.8H80zM86.4,73.6H89.6V76.8H86.4zM89.6,73.6H92.8V76.8H89.6zM12.8,76.8H16V80H12.8zM16,76.8H19.2V80H16zM19.2,76.8H22.4V80H19.2zM22.4,76.8H25.6V80H22.4zM28.8,76.8H32V80H28.8zM32,76.8H35.2V80H32zM44.8,76.8H48V80H44.8zM54.4,76.8H57.6V80H54.4zM57.6,76.8H60.8V80H57.6zM67.2,76.8H70.4V80H67.2zM70.4,76.8H73.6V80H70.4zM76.8,76.8H80V80H76.8zM80,76.8H83.2V80H80zM83.2,76.8H86.4V80H83.2zM86.4,76.8H89.6V80H86.4zM89.6,76.8H92.8V80H89.6zM92.8,76.8H96V80H92.8zM99.2,76.8H102.4V80H99.2zM38.4,80H41.6V83.2H38.4zM41.6,80H44.8V83.2H41.6zM54.4,80H57.6V83.2H54.4zM57.6,80H60.8V83.2H57.6zM67.2,80H70.4V83.2H67.2zM70.4,80H73.6V83.2H70.4zM76.8,80H80V83.2H76.8zM89.6,80H92.8V83.2H89.6zM92.8,80H96V83.2H92.8zM96,80H99.2V83.2H96zM102.4,80H105.6V83.2H102.4zM12.8,83.2H16V86.4H12.8zM16,83.2H19.2V86.4H16zM19.2,83.2H22.4V86.4H19.2zM22.4,83.2H25.6V86.4H22.4zM25.6,83.2H28.8V86.4H25.6zM28.8,83.2H32V86.4H28.8zM32,83.2H35.2V86.4H32zM41.6,83.2H44.8V86.4H41.6zM44.8,83.2H48V86.4H44.8zM48,83.2H51.2V86.4H48zM60.8,83.2H64V86.4H60.8zM76.8,83.2H80V86.4H76.8zM83.2,83.2H86.4V86.4H83.2zM89.6,83.2H92.8V86.4H89.6zM102.4,83.2H105.6V86.4H102.4zM12.8,86.4H16V89.6H12.8zM32,86.4H35.2V89.6H32zM38.4,86.4H41.6V89.6H38.4zM54.4,86.4H57.6V89.6H54.4zM67.2,86.4H70.4V89.6H67.2zM73.6,86.4H76.8V89.6H73.6zM76.8,86.4H80V89.6H76.8zM89.6,86.4H92.8V89.6H89.6zM92.8,86.4H96V89.6H92.8zM99.2,86.4H102.4V89.6H99.2zM12.8,89.6H16V92.8H12.8zM19.2,89.6H22.4V92.8H19.2zM22.4,89.6H25.6V92.8H22.4zM25.6,89.6H28.8V92.8H25.6zM32,89.6H35.2V92.8H32zM41.6,89.6H44.8V92.8H41.6zM44.8,89.6H48V92.8H44.8zM48,89.6H51.2V92.8H48zM51.2,89.6H54.4V92.8H51.2zM54.4,89.6H57.6V92.8H54.4zM60.8,89.6H64V92.8H60.8zM64,89.6H67.2V92.8H64zM67.2,89.6H70.4V92.8H67.2zM73.6,89.6H76.8V92.8H73.6zM76.8,89.6H80V92.8H76.8zM80,89.6H83.2V92.8H80zM83.2,89.6H86.4V92.8H83.2zM86.4,89.6H89.6V92.8H86.4zM89.6,89.6H92.8V92.8H89.6zM92.8,89.6H96V92.8H92.8zM99.2,89.6H102.4V92.8H99.2zM12.8,92.8H16V96H12.8zM19.2,92.8H22.4V96H19.2zM22.4,92.8H25.6V96H22.4zM25.6,92.8H28.8V96H25.6zM32,92.8H35.2V96H32zM41.6,92.8H44.8V96H41.6zM44.8,92.8H48V96H44.8zM51.2,92.8H54.4V96H51.2zM64,92.8H67.2V96H64zM73.6,92.8H76.8V96H73.6zM80,92.8H83.2V96H80zM89.6,92.8H92.8V96H89.6zM92.8,92.8H96V96H92.8zM96,92.8H99.2V96H96zM99.2,92.8H102.4V96H99.2zM12.8,96H16V99.2H12.8zM19.2,96H22.4V99.2H19.2zM22.4,96H25.6V99.2H22.4zM25.6,96H28.8V99.2H25.6zM32,96H35.2V99.2H32zM38.4,96H41.6V99.2H38.4zM41.6,96H44.8V99.2H41.6zM51.2,96H54.4V99.2H51.2zM54.4,96H57.6V99.2H54.4zM57.6,96H60.8V99.2H57.6zM64,96H67.2V99.2H64zM67.2,96H70.4V99.2H67.2zM70.4,96H73.6V99.2H70.4zM73.6,96H76.8V99.2H73.6zM89.6,96H92.8V99.2H89.6zM99.2,96H102.4V99.2H99.2zM102.4,96H105.6V99.2H102.4zM12.8,99.2H16V102.4H12.8zM32,99.2H35.2V102.4H32zM38.4,99.2H41.6V102.4H38.4zM48,99.2H51.2V102.4H48zM51.2,99.2H54.4V102.4H51.2zM57.6,99.2H60.8V102.4H57.6zM60.8,99.2H64V102.4H60.8zM64,99.2H67.2V102.4H64zM70.4,99.2H73.6V102.4H70.4zM76.8,99.2H80V102.4H76.8zM89.6,99.2H92.8V102.4H89.6zM92.8,99.2H96V102.4H92.8zM12.8,102.4H16V105.6H12.8zM16,102.4H19.2V105.6H16zM19.2,102.4H22.4V105.6H19.2zM22.4,102.4H25.6V105.6H22.4zM25.6,102.4H28.8V105.6H25.6zM28.8,102.4H32V105.6H28.8zM32,102.4H35.2V105.6H32zM38.4,102.4H41.6V105.6H38.4zM41.6,102.4H44.8V105.6H41.6zM54.4,102.4H57.6V105.6H54.4zM57.6,102.4H60.8V105.6H57.6zM67.2,102.4H70.4V105.6H67.2zM70.4,102.4H73.6V105.6H70.4zM76.8,102.4H80V105.6H76.8zM89.6,102.4H92.8V105.6H89.6zM92.8,102.4H96V105.6H92.8zM102.4,102.4H105.6V105.6H102.4z" id="qr-path" fill="#000000" fill-opacity="1" fill-rule="nonzero" stroke="none" /></svg>